<?xml version="1.0" encoding="utf-8"?>
<!-- Generator: Adobe Illustrator 15.1.0, SVG Export Plug-In . SVG Version: 6.00 Build 0)  -->
<!DOCTYPE svg PUBLIC "-//W3C//DTD SVG 1.1//EN" "http://www.w3.org/Graphics/SVG/1.1/DTD/svg11.dtd">
<svg version="1.1" id="Layer_1" xmlns="http://www.w3.org/2000/svg" xmlns:xlink="http://www.w3.org/1999/xlink" x="0px" y="0px"
	 width="124.094px" height="105.289px" viewBox="0 0 124.094 105.289" enable-background="new 0 0 124.094 105.289"
	 xml:space="preserve">
<g>
	<path fill-rule="evenodd" clip-rule="evenodd" fill="#F1F2F2" d="M54.863,67.174c-1.151,11.455,16.041,11.514,15.348,0.492
		C66.167,66.419,59.83,67.484,54.863,67.174z"/>
	<path fill-rule="evenodd" clip-rule="evenodd" fill="#F1F2F2" d="M35.974,38.845c-11.494,3.988,2.286,26.612,12.58,15.854
		C51.199,45.541,44.872,35.756,35.974,38.845z M36.594,49.641c-1.033-2.031-0.411-4.616,0.536-6.254
		c2.557-0.849,4.591-0.322,6.26,1.106C40.126,45.221,38.696,47.764,36.594,49.641z"/>
	<path fill-rule="evenodd" clip-rule="evenodd" fill="#F1F2F2" d="M91.113,40.287C81.31,33.799,71.9,45.709,76.976,55.701
		C86.728,60.264,96.195,50.451,91.113,40.287z M88.287,44.279c-0.146,1.93,0.462,4.606-0.543,5.686
		c-1.23-2.562-2.4-5.19-6.272-5.086C82.346,42.034,86.824,42.312,88.287,44.279z"/>
	<path fill-rule="evenodd" clip-rule="evenodd" fill="#F1F2F2" d="M116.784,60.625c-2.599-2.428-5.595-3.248-9.123-5.64
		c-0.046-11.186-4.423-17.997-8.644-24.968c1.612-3.114,2.343-7.104,2.218-11.942c-0.013-2.275-0.025-4.547-0.033-6.822
		c0.084-6.873-3.887-10.723-8.581-11.328C82.587-1.361,75.019,9.228,71.095,14.805c-5.556-0.873-12.586-0.618-18.188,0.089
		C49.09,7.452,41.432-1.308,31.81,0.218c-11.313,1.791-9.452,19.963-6.109,30.152c-4.233,6.927-8.466,13.861-8.404,25.044
		C7.697,59.925-1.278,68.787,0.374,82.21c0.86,6.993,5.009,11.12,9.078,15.429l0,0l0,0c0.323,0.341,0.638,0.68,0.96,1.022
		c1.594,1.478,5.332,4.138,12.23,5.037c0.899,0.118,1.814,0.232,2.734,0.343c1.341,0.07,2.713,0.106,3.81,0.423
		c7.89,0.809,15.782,1.185,20.233,0.369c0.003,0,0.003,0,0.003-0.002c-0.608-1.923-1.184-3.878-1.794-5.797
		C29.712,97.236,9.065,97.788,7.755,80.468C6.62,65.498,24.893,55.849,34.979,68.403c0.774,1.711,0.787,4.534,0.03,6.25
		c17.512,0.302,1.175-21.383-10.326-19.84c1.258-10.251,3.848-22.516,12.96-23.365c7.328-0.684,12.405,5.744,15.94,11.966
		c0.048,0.659,0.061,1.332,0.026,2.024c2.531,4.02,2.485,10.642,3.874,15.814c2.34,1.905,6.024,2.38,8.872,0.592
		c2.045-4.278,1.395-11.222,3.727-15.218c-0.011-0.377-0.002-0.751,0.013-1.125c3.253-6.607,7.944-14.141,15.291-14.282
		c9.712-0.187,13.662,12.467,14.885,23.231c-10.119-1.455-28.045,17.335-11.272,19.942c2.085-1.17-0.668-3.58,0.538-6.25
		c18.597-19.149,37.329,11.908,20.006,24.343c-2.717,1.957-7.19,3.499-10.777,4.031c-7.203,1.067-17.518-1.275-17.092,8.588
		c4.732,0.033,13.089-0.343,12.013-0.608C118.753,106.513,133.927,76.658,116.784,60.625z"/>
	<path fill-rule="evenodd" clip-rule="evenodd" fill="#F1F2F2" d="M62.266,87.27l-0.088,0.041l-0.081-0.041
		c0,0,0.015,0.025,0.037,0.062l-7.809,3.766c2.581,3.848,7.19-2.717,7.855-3.703c0.676,0.98,5.346,7.501,7.892,3.627l-7.85-3.69
		C62.247,87.295,62.266,87.27,62.266,87.27z"/>
</g>
</svg>
