<?xml version="1.0" encoding="utf-8"?>
<!-- Generator: Adobe Illustrator 15.1.0, SVG Export Plug-In . SVG Version: 6.00 Build 0)  -->
<!DOCTYPE svg PUBLIC "-//W3C//DTD SVG 1.1//EN" "http://www.w3.org/Graphics/SVG/1.1/DTD/svg11.dtd">
<svg version="1.1" id="Layer_1" xmlns="http://www.w3.org/2000/svg" xmlns:xlink="http://www.w3.org/1999/xlink" x="0px" y="0px"
	 width="247.5px" height="259.25px" viewBox="0 0 247.5 259.25" enable-background="new 0 0 247.5 259.25" xml:space="preserve">
<polygon fill-rule="evenodd" clip-rule="evenodd" fill="#FFFFFF" stroke="#337AB7" stroke-width="9.6627" stroke-miterlimit="10" points="
	242.061,251.31 241.223,36.446 163.459,8 84.73,36.621 6,8 6,222.865 84.73,251.486 163.223,223.041 "/>
<g>
	<g>
		<path fill-rule="evenodd" clip-rule="evenodd" fill="#FFFFFF" d="M120.227,193.436c-0.562-0.597-5.423-5.426-21.509-12.404
			c-20.688-8.972-30.327-39.905-30.327-57.986c0-1.734,0.067-3.51,0.199-5.276l0.44-5.886l5.684,1.595
			c2.223,0.624,5.316,0.927,9.458,0.927c4.552,0,10.017-0.364,15.803-0.75c7.24-0.482,15.445-1.029,24.057-1.029
			s16.817,0.547,24.056,1.029c5.786,0.385,11.251,0.75,15.804,0.75c4.142,0,7.235-0.303,9.458-0.927l5.684-1.595l0.44,5.886
			c0.132,1.767,0.199,3.542,0.199,5.276c0,18.081-9.639,49.014-30.327,57.986c-16.171,7.014-20.998,11.857-21.517,12.412
			l-3.952,5.788L120.227,193.436z"/>
		<path fill="#337AB7" d="M124.031,117.458c15.407,0,29.42,1.778,39.86,1.778c4.22,0,7.855-0.291,10.763-1.106
			c0.121,1.62,0.186,3.259,0.186,4.916c0,16.779-9.322,45.706-27.418,53.554c-19.131,8.298-23.391,13.85-23.391,13.85
			s-4.262-5.552-23.391-13.85c-18.096-7.848-27.418-36.774-27.418-53.554c0-1.657,0.064-3.296,0.186-4.916
			c2.908,0.816,6.542,1.106,10.763,1.106C94.61,119.236,108.625,117.458,124.031,117.458 M64.652,105.637l-0.88,11.773
			c-0.141,1.886-0.212,3.782-0.212,5.636c0,19.36,10.563,52.586,33.236,62.418c13.721,5.952,18.69,10.14,19.694,11.069l8.102,13.126
			l7.014-13.159c1.077-0.988,6.085-5.149,19.661-11.037c22.672-9.833,33.235-43.059,33.235-62.418c0-1.854-0.071-3.75-0.212-5.636
			l-0.88-11.773l-11.367,3.19c-1.767,0.496-4.509,0.747-8.152,0.747c-4.392,0-9.779-0.359-15.482-0.739
			c-7.314-0.487-15.605-1.04-24.377-1.04c-8.771,0-17.062,0.552-24.376,1.04c-5.704,0.38-11.092,0.739-15.483,0.739
			c-3.643,0-6.386-0.251-8.152-0.747L64.652,105.637L64.652,105.637z"/>
	</g>
	<g>
		<path fill="#FFFFFF" d="M163.893,113.725c-4.875,0-10.496-0.375-16.448-0.771c-7.089-0.473-15.124-1.008-23.414-1.008
			c-8.292,0-16.327,0.535-23.417,1.008c-5.951,0.396-11.572,0.771-16.447,0.771c-6.401,0-23.404,0-23.404-15.893
			c0-19.333,25.814-34.629,59.442-35.713c1.055-7.271,3.888-18.492,12.819-18.492c10.144,0,13.826,6.923,13.826,11.577v1.787
			l-1.163,1.357c-0.031,0.036-1.865,2.181-4.138,5.061c26.963,4.255,45.746,18.04,45.746,34.425c0,7.658-4.147,11.393-7.627,13.178
			C176.01,112.887,171.144,113.725,163.893,113.725C163.893,113.725,163.894,113.725,163.893,113.725z"/>
		<path fill="#337AB7" d="M133.025,48.458c8.994,0,8.994,6.745,8.994,6.745s-5.371,6.268-9.336,12.023
			c28.168,2.214,49.781,15.072,49.781,30.605c0,8.93-7.145,11.062-18.572,11.062c-10.44,0-24.455-1.779-39.862-1.779
			c-15.41,0-29.423,1.779-39.863,1.779c-11.426,0-18.572-2.133-18.572-11.062c0-17.09,26.162-30.943,58.436-30.943
			c0.158,0,0.316,0.002,0.475,0.002C125.299,58.987,127.406,48.458,133.025,48.458 M133.025,38.795
			c-3.93,0-11.123,1.635-15.141,12.586c-0.66,1.799-1.233,3.837-1.715,6.1c-14.223,0.93-27.488,4.375-37.98,9.931
			c-14.352,7.6-22.256,18.403-22.256,30.42c0,7.878,3.642,14.084,10.253,17.477c4.378,2.246,9.924,3.248,17.981,3.248
			c5.035,0,10.734-0.38,16.768-0.782c7.014-0.467,14.964-0.997,23.095-0.997c8.129,0,16.079,0.53,23.093,0.997
			c6.034,0.402,11.733,0.782,16.769,0.782c8.058,0,13.604-1.001,17.982-3.248c6.611-3.392,10.252-9.599,10.252-17.477
			c0-10.966-6.735-21.105-18.966-28.551c-6.394-3.893-14.177-6.959-22.749-9.024l1.268-1.48l0.001-3.573
			C151.682,48.859,146.617,38.795,133.025,38.795L133.025,38.795z"/>
	</g>
</g>
</svg>
