<?xml version="1.0" encoding="utf-8"?>
<!-- Generator: Adobe Illustrator 15.1.0, SVG Export Plug-In . SVG Version: 6.00 Build 0)  -->
<!DOCTYPE svg PUBLIC "-//W3C//DTD SVG 1.1//EN" "http://www.w3.org/Graphics/SVG/1.1/DTD/svg11.dtd">
<svg version="1.1" id="Layer_1" xmlns="http://www.w3.org/2000/svg" xmlns:xlink="http://www.w3.org/1999/xlink" x="0px" y="0px"
	 width="150.525px" height="239.241px" viewBox="0 0 150.525 239.241" enable-background="new 0 0 150.525 239.241"
	 xml:space="preserve">
<path d="M75.842,0C34.595,0,1.158,33.437,1.158,74.684c0,28.391,23.643,52.805,45.7,91.981c9.988,17.74,28.984,72.576,28.984,72.576
	s18.996-54.835,28.984-72.576c22.057-39.176,45.7-63.591,45.7-91.981C150.525,33.437,117.088,0,75.842,0z M75.842,93.5
	c-12.15,0-22-9.85-22-22s9.85-22,22-22s22,9.85,22,22S87.992,93.5,75.842,93.5z"/>
</svg>
