<?xml version="1.0" encoding="utf-8"?>
<!-- Generator: Adobe Illustrator 15.1.0, SVG Export Plug-In . SVG Version: 6.00 Build 0)  -->
<!DOCTYPE svg PUBLIC "-//W3C//DTD SVG 1.1//EN" "http://www.w3.org/Graphics/SVG/1.1/DTD/svg11.dtd">
<svg version="1.1" id="Layer_1" xmlns="http://www.w3.org/2000/svg" xmlns:xlink="http://www.w3.org/1999/xlink" x="0px" y="0px"
	 width="116.869px" height="138.73px" viewBox="0 0 116.869 138.73" enable-background="new 0 0 116.869 138.73"
	 xml:space="preserve">
<path fill-rule="evenodd" clip-rule="evenodd" fill="#D9534F" d="M58.435,65.739c-21.635,0-40.521,3.508-50.623,0.672
	c-0.121,1.621-0.186,3.26-0.186,4.916c0,16.779,9.322,45.707,27.417,53.555c19.131,8.297,23.392,13.849,23.392,13.849
	s4.261-5.552,23.391-13.849c18.096-7.848,27.418-36.775,27.418-53.555c0-1.656-0.065-3.295-0.186-4.916
	C98.956,69.247,80.068,65.739,58.435,65.739z"/>
<path fill="#D9534F" d="M67.086,18.769c3.965-5.755,9.337-12.022,9.337-12.022S76.423,0,67.429,0c-5.619,0-7.728,10.53-8.519,18.433
	c-0.158,0-0.316-0.003-0.476-0.003C26.162,18.431,0,32.284,0,49.374c0,17.089,26.162,9.283,58.435,9.283s58.435,7.806,58.435-9.283
	C116.869,33.842,95.256,20.983,67.086,18.769z"/>
</svg>
