<?xml version="1.0" encoding="utf-8"?>
<!-- Generator: Adobe Illustrator 15.1.0, SVG Export Plug-In . SVG Version: 6.00 Build 0)  -->
<!DOCTYPE svg PUBLIC "-//W3C//DTD SVG 1.1//EN" "http://www.w3.org/Graphics/SVG/1.1/DTD/svg11.dtd">
<svg version="1.1" id="Layer_1" xmlns="http://www.w3.org/2000/svg" xmlns:xlink="http://www.w3.org/1999/xlink" x="0px" y="0px"
	 width="116.869px" height="138.73px" viewBox="0 0 116.869 138.73" enable-background="new 0 0 116.869 138.73"
	 xml:space="preserve">
<path fill-rule="evenodd" clip-rule="evenodd" fill="#337AB7" d="M58.435,65.739c-21.634,0-40.521,3.507-50.623,0.672
	c-0.12,1.62-0.186,3.259-0.186,4.916c0,16.779,9.322,45.706,27.418,53.554c19.13,8.298,23.391,13.85,23.391,13.85
	s4.261-5.552,23.392-13.85c18.095-7.848,27.417-36.774,27.417-53.554c0-1.657-0.064-3.296-0.186-4.916
	C98.956,69.246,80.069,65.739,58.435,65.739z"/>
<path fill="#337AB7" d="M67.087,18.768c3.965-5.755,9.336-12.022,9.336-12.022S76.423,0,67.429,0
	c-5.618,0-7.727,10.529-8.519,18.433c-0.158,0-0.316-0.003-0.476-0.003C26.162,18.43,0,32.284,0,49.374
	c0,17.088,26.162,9.282,58.435,9.282s58.435,7.806,58.435-9.282C116.869,33.841,95.256,20.982,67.087,18.768z"/>
</svg>
