<?xml version="1.0" encoding="utf-8"?>
<!-- Generator: Adobe Illustrator 16.0.0, SVG Export Plug-In . SVG Version: 6.00 Build 0)  -->
<!DOCTYPE svg PUBLIC "-//W3C//DTD SVG 1.1//EN" "http://www.w3.org/Graphics/SVG/1.1/DTD/svg11.dtd">
<svg version="1.1" id="Layer_1" xmlns="http://www.w3.org/2000/svg" xmlns:xlink="http://www.w3.org/1999/xlink" x="0px" y="0px"
	 width="1103.25px" height="259.25px" viewBox="0 0 1103.25 259.25" enable-background="new 0 0 1103.25 259.25"
	 xml:space="preserve">
<polygon fill="#FFFFFF" stroke="#337AB7" stroke-width="9.6627" stroke-miterlimit="10" points="242.061,251.311 241.223,36.446 
	163.459,8 84.73,36.621 6,8 6,222.865 84.73,251.486 163.223,223.041 "/>
<g>
	<g>
		<path fill="#FFFFFF" d="M120.227,193.436c-0.562-0.597-5.423-5.426-21.509-12.401c-20.688-8.974-30.327-39.905-30.327-57.986
			c0-1.734,0.067-3.51,0.199-5.276l0.44-5.886l5.684,1.595c2.223,0.624,5.316,0.927,9.458,0.927c4.552,0,10.017-0.364,15.803-0.75
			c7.24-0.482,15.445-1.029,24.057-1.029c8.612,0,16.817,0.547,24.056,1.029c5.786,0.385,11.251,0.75,15.805,0.75
			c4.142,0,7.234-0.303,9.457-0.927l5.685-1.595l0.44,5.886c0.131,1.767,0.198,3.542,0.198,5.276
			c0,18.081-9.639,49.017-30.327,57.986c-16.171,7.014-20.998,11.854-21.517,12.409l-3.952,5.789L120.227,193.436z"/>
		<path fill="#337AB7" d="M124.031,117.458c15.406,0,29.42,1.778,39.859,1.778c4.221,0,7.855-0.291,10.764-1.106
			c0.121,1.62,0.186,3.259,0.186,4.916c0,16.779-9.322,45.706-27.418,53.554c-19.131,8.299-23.391,13.853-23.391,13.853
			s-4.262-5.554-23.391-13.853c-18.096-7.848-27.418-36.771-27.418-53.554c0-1.657,0.064-3.296,0.186-4.916
			c2.908,0.816,6.542,1.106,10.763,1.106C94.61,119.236,108.625,117.458,124.031,117.458 M64.652,105.637l-0.88,11.773
			c-0.141,1.886-0.212,3.782-0.212,5.636c0,19.36,10.563,52.586,33.236,62.418c13.721,5.952,18.69,10.14,19.694,11.069l8.102,13.126
			l7.014-13.159c1.078-0.988,6.086-5.148,19.662-11.037c22.672-9.833,33.234-43.059,33.234-62.418c0-1.854-0.07-3.75-0.212-5.636
			l-0.88-11.773l-11.367,3.19c-1.768,0.496-4.509,0.747-8.152,0.747c-4.392,0-9.779-0.359-15.481-0.739
			c-7.314-0.487-15.605-1.04-24.377-1.04c-8.772,0-17.062,0.552-24.376,1.04c-5.704,0.38-11.092,0.739-15.483,0.739
			c-3.643,0-6.386-0.251-8.152-0.747L64.652,105.637L64.652,105.637z"/>
	</g>
	<g>
		<path fill="#FFFFFF" d="M163.893,113.725c-4.875,0-10.496-0.375-16.447-0.771c-7.09-0.473-15.125-1.008-23.414-1.008
			c-8.292,0-16.327,0.535-23.417,1.008c-5.951,0.396-11.572,0.771-16.447,0.771c-6.401,0-23.404,0-23.404-15.893
			c0-19.333,25.814-34.629,59.442-35.713c1.055-7.271,3.888-18.492,12.818-18.492c10.145,0,13.826,6.923,13.826,11.577v1.787
			l-1.162,1.357c-0.031,0.036-1.865,2.181-4.139,5.061c26.963,4.255,45.746,18.04,45.746,34.425c0,7.658-4.146,11.393-7.627,13.178
			C176.01,112.887,171.145,113.725,163.893,113.725C163.893,113.725,163.895,113.725,163.893,113.725z"/>
		<path fill="#337AB7" d="M133.025,48.458c8.994,0,8.994,6.745,8.994,6.745s-5.371,6.268-9.336,12.023
			c28.168,2.214,49.78,15.072,49.78,30.605c0,8.93-7.146,11.062-18.571,11.062c-10.44,0-24.455-1.779-39.863-1.779
			c-15.41,0-29.423,1.779-39.863,1.779c-11.426,0-18.572-2.133-18.572-11.062c0-17.09,26.162-30.943,58.438-30.943
			c0.158,0,0.316,0.002,0.475,0.002C125.299,58.987,127.406,48.458,133.025,48.458 M133.025,38.795
			c-3.93,0-11.124,1.635-15.142,12.586c-0.66,1.799-1.233,3.837-1.715,6.1c-14.223,0.93-27.488,4.375-37.98,9.931
			c-14.352,7.6-22.256,18.403-22.256,30.42c0,7.878,3.642,14.084,10.253,17.477c4.378,2.246,9.924,3.248,17.981,3.248
			c5.035,0,10.734-0.38,16.768-0.782c7.014-0.467,14.964-0.997,23.095-0.997c8.129,0,16.08,0.53,23.093,0.997
			c6.034,0.402,11.732,0.782,16.77,0.782c8.058,0,13.604-1.001,17.981-3.248c6.61-3.392,10.252-9.599,10.252-17.477
			c0-10.966-6.735-21.105-18.966-28.551c-6.395-3.896-14.178-6.959-22.749-9.024l1.269-1.48v-3.573
			C151.682,48.859,146.617,38.795,133.025,38.795L133.025,38.795z"/>
	</g>
</g>
<text transform="matrix(1 0 0 1 265.2515 188.0254)" fill="#337AB7" font-family="'JosefinSans-SemiBold'" font-size="164.6052">CHIPMUNK</text>
</svg>
